<svg class="plot-svg" xmlns="http://www.w3.org/2000/svg" viewBox="0 0 900 400" width="900" height="400" role="img" aria-label="Plot" data-preset="standard">
  <rect x="0" y="0" width="900" height="400" fill="none" pointer-events="none" />
  <defs>
    <clipPath id="clip-4a4862876654ba35e9e71ddae50d6914786ea9b24d7893d60fd0fa3f351fe788">
      <rect x="46" y="12" width="842" height="354" />
    </clipPath>

    <!-- Arrow markers (TikZ-style) -->
    <marker id="arrow-end" markerWidth="10" markerHeight="10" refX="9" refY="3" orient="auto" markerUnits="strokeWidth">
      <path d="M0,0 L0,6 L9,3 z" fill="context-stroke" />
    </marker>
    <marker id="arrow-start" markerWidth="10" markerHeight="10" refX="0" refY="3" orient="auto" markerUnits="strokeWidth">
      <path d="M9,0 L9,6 L0,3 z" fill="context-stroke" />
    </marker>
    <marker id="arrow-stealth-end" markerWidth="10" markerHeight="7" refX="10" refY="3.5" orient="auto" markerUnits="strokeWidth">
      <path d="M0,0 L10,3.5 L0,7 L3,3.5 z" fill="context-stroke" />
    </marker>
    <marker id="arrow-stealth-start" markerWidth="10" markerHeight="7" refX="0" refY="3.5" orient="auto" markerUnits="strokeWidth">
      <path d="M10,0 L0,3.5 L10,7 L7,3.5 z" fill="context-stroke" />
    </marker>
    <marker id="arrow-latex-end" markerWidth="9" markerHeight="9" refX="9" refY="4.5" orient="auto" markerUnits="strokeWidth">
      <path d="M0,0 L9,4.5 L0,9 z" fill="context-stroke" />
    </marker>
    <marker id="arrow-latex-start" markerWidth="9" markerHeight="9" refX="0" refY="4.5" orient="auto" markerUnits="strokeWidth">
      <path d="M9,0 L0,4.5 L9,9 z" fill="context-stroke" />
    </marker>
  </defs>
  <g class="plot-grid" stroke="currentColor" stroke-opacity="0.15" stroke-width="1"><line class="plot-grid-line" vector-effect="non-scaling-stroke" x1="72.31" y1="12" x2="72.31" y2="366" /><line class="plot-grid-line" vector-effect="non-scaling-stroke" x1="203.88" y1="12" x2="203.88" y2="366" /><line class="plot-grid-line" vector-effect="non-scaling-stroke" x1="335.44" y1="12" x2="335.44" y2="366" /><line class="plot-grid-line" vector-effect="non-scaling-stroke" x1="467.00" y1="12" x2="467.00" y2="366" /><line class="plot-grid-line" vector-effect="non-scaling-stroke" x1="598.56" y1="12" x2="598.56" y2="366" /><line class="plot-grid-line" vector-effect="non-scaling-stroke" x1="730.12" y1="12" x2="730.12" y2="366" /><line class="plot-grid-line" vector-effect="non-scaling-stroke" x1="861.69" y1="12" x2="861.69" y2="366" /><line class="plot-grid-line" vector-effect="non-scaling-stroke" x1="46" y1="330.60" x2="888" y2="330.60" /><line class="plot-grid-line" vector-effect="non-scaling-stroke" x1="46" y1="259.80" x2="888" y2="259.80" /><line class="plot-grid-line" vector-effect="non-scaling-stroke" x1="46" y1="189.00" x2="888" y2="189.00" /><line class="plot-grid-line" vector-effect="non-scaling-stroke" x1="46" y1="118.20" x2="888" y2="118.20" /><line class="plot-grid-line" vector-effect="non-scaling-stroke" x1="46" y1="47.40" x2="888" y2="47.40" /></g>

  <g class="plot-axes" stroke="currentColor" stroke-opacity="0.6" stroke-width="1.5">
    <line class="plot-axis plot-axis-x" vector-effect="non-scaling-stroke"
          x1="46" y1="366" x2="888" y2="366" />
    <line class="plot-axis plot-axis-y" vector-effect="non-scaling-stroke"
          x1="46" y1="12" x2="46" y2="366" />
  </g>

  <g class="plot-labels" fill="currentColor" fill-opacity="0.75" font-size="12"
     font-family="system-ui,-apple-system,Segoe UI,Roboto,sans-serif">
    <text class="plot-x-tick" x="72.31" y="384" text-anchor="middle">-3</text><text class="plot-x-tick" x="203.88" y="384" text-anchor="middle">-2</text><text class="plot-x-tick" x="335.44" y="384" text-anchor="middle">-1</text><text class="plot-x-tick" x="467.00" y="384" text-anchor="middle">0</text><text class="plot-x-tick" x="598.56" y="384" text-anchor="middle">1</text><text class="plot-x-tick" x="730.12" y="384" text-anchor="middle">2</text><text class="plot-x-tick" x="861.69" y="384" text-anchor="middle">3</text><text class="plot-y-tick" x="38" y="334.60" text-anchor="end">-1</text><text class="plot-y-tick" x="38" y="263.80" text-anchor="end">-0.5</text><text class="plot-y-tick" x="38" y="193.00" text-anchor="end">0</text><text class="plot-y-tick" x="38" y="122.20" text-anchor="end">0.5</text><text class="plot-y-tick" x="38" y="51.40" text-anchor="end">1</text>
  </g>

  <g class="plot-content" clip-path="url(#clip-4a4862876654ba35e9e71ddae50d6914786ea9b24d7893d60fd0fa3f351fe788)">
    <g class="plot-series series-0"><path class="plot-line series-0" d="M46.00 180.73 L48.64 183.57 L51.28 186.41 L53.92 189.25 L56.56 192.09 L59.20 194.93 L61.84 197.77 L64.48 200.60 L67.12 203.43 L69.76 206.25 L72.39 209.07 L75.03 211.88 L77.67 214.68 L80.31 217.47 L82.95 220.24 L85.59 223.01 L88.23 225.76 L90.87 228.49 L93.51 231.21 L96.15 233.92 L98.79 236.60 L101.43 239.27 L104.07 241.91 L106.71 244.54 L109.35 247.14 L111.99 249.72 L114.63 252.27 L117.27 254.80 L119.91 257.30 L122.55 259.78 L125.18 262.22 L127.82 264.64 L130.46 267.03 L133.10 269.38 L135.74 271.70 L138.38 273.99 L141.02 276.25 L143.66 278.47 L146.30 280.65 L148.94 282.80 L151.58 284.91 L154.22 286.98 L156.86 289.01 L159.50 291.00 L162.14 292.95 L164.78 294.86 L167.42 296.72 L170.06 298.55 L172.70 300.32 L175.34 302.06 L177.97 303.74 L180.61 305.39 L183.25 306.98 L185.89 308.53 L188.53 310.03 L191.17 311.48 L193.81 312.88 L196.45 314.23 L199.09 315.53 L201.73 316.78 L204.37 317.98 L207.01 319.12 L209.65 320.22 L212.29 321.26 L214.93 322.25 L217.57 323.18 L220.21 324.06 L222.85 324.89 L225.49 325.66 L228.13 326.38 L230.76 327.04 L233.40 327.64 L236.04 328.19 L238.68 328.69 L241.32 329.12 L243.96 329.50 L246.60 329.83 L249.24 330.10 L251.88 330.31 L254.52 330.46 L257.16 330.56 L259.80 330.60 L262.44 330.58 L265.08 330.51 L267.72 330.38 L270.36 330.19 L273.00 329.95 L275.64 329.64 L278.28 329.29 L280.92 328.87 L283.55 328.40 L286.19 327.87 L288.83 327.29 L291.47 326.65 L294.11 325.96 L296.75 325.21 L299.39 324.41 L302.03 323.55 L304.67 322.64 L307.31 321.67 L309.95 320.65 L312.59 319.58 L315.23 318.46 L317.87 317.28 L320.51 316.05 L323.15 314.77 L325.79 313.44 L328.43 312.06 L331.07 310.63 L333.71 309.15 L336.34 307.62 L338.98 306.05 L341.62 304.42 L344.26 302.76 L346.90 301.04 L349.54 299.28 L352.18 297.48 L354.82 295.63 L357.46 293.74 L360.10 291.81 L362.74 289.83 L365.38 287.82 L368.02 285.76 L370.66 283.67 L373.30 281.54 L375.94 279.37 L378.58 277.16 L381.22 274.92 L383.86 272.65 L386.50 270.34 L389.13 268.00 L391.77 265.62 L394.41 263.22 L397.05 260.79 L399.69 258.32 L402.33 255.83 L404.97 253.31 L407.61 250.77 L410.25 248.20 L412.89 245.61 L415.53 242.99 L418.17 240.36 L420.81 237.70 L423.45 235.02 L426.09 232.33 L428.73 229.61 L431.37 226.88 L434.01 224.14 L436.65 221.38 L439.29 218.61 L441.92 215.83 L444.56 213.03 L447.20 210.23 L449.84 207.41 L452.48 204.59 L455.12 201.77 L457.76 198.93 L460.40 196.10 L463.04 193.26 L465.68 190.42 L468.32 187.58 L470.96 184.74 L473.60 181.90 L476.24 179.07 L478.88 176.23 L481.52 173.41 L484.16 170.59 L486.80 167.77 L489.44 164.97 L492.08 162.17 L494.71 159.39 L497.35 156.62 L499.99 153.86 L502.63 151.12 L505.27 148.39 L507.91 145.67 L510.55 142.98 L513.19 140.30 L515.83 137.64 L518.47 135.01 L521.11 132.39 L523.75 129.80 L526.39 127.23 L529.03 124.69 L531.67 122.17 L534.31 119.68 L536.95 117.21 L539.59 114.78 L542.23 112.38 L544.87 110.00 L547.50 107.66 L550.14 105.35 L552.78 103.08 L555.42 100.84 L558.06 98.63 L560.70 96.46 L563.34 94.33 L565.98 92.24 L568.62 90.18 L571.26 88.17 L573.90 86.19 L576.54 84.26 L579.18 82.37 L581.82 80.52 L584.46 78.72 L587.10 76.96 L589.74 75.24 L592.38 73.58 L595.02 71.95 L597.66 70.38 L600.29 68.85 L602.93 67.37 L605.57 65.94 L608.21 64.56 L610.85 63.23 L613.49 61.95 L616.13 60.72 L618.77 59.54 L621.41 58.42 L624.05 57.35 L626.69 56.33 L629.33 55.36 L631.97 54.45 L634.61 53.59 L637.25 52.79 L639.89 52.04 L642.53 51.35 L645.17 50.71 L647.81 50.13 L650.45 49.60 L653.08 49.13 L655.72 48.71 L658.36 48.36 L661.00 48.05 L663.64 47.81 L666.28 47.62 L668.92 47.49 L671.56 47.42 L674.20 47.40 L676.84 47.44 L679.48 47.54 L682.12 47.69 L684.76 47.90 L687.40 48.17 L690.04 48.50 L692.68 48.88 L695.32 49.31 L697.96 49.81 L700.60 50.36 L703.24 50.96 L705.87 51.62 L708.51 52.34 L711.15 53.11 L713.79 53.94 L716.43 54.82 L719.07 55.75 L721.71 56.74 L724.35 57.78 L726.99 58.88 L729.63 60.02 L732.27 61.22 L734.91 62.47 L737.55 63.77 L740.19 65.12 L742.83 66.52 L745.47 67.97 L748.11 69.47 L750.75 71.02 L753.39 72.61 L756.03 74.26 L758.66 75.94 L761.30 77.68 L763.94 79.45 L766.58 81.28 L769.22 83.14 L771.86 85.05 L774.50 87.00 L777.14 88.99 L779.78 91.02 L782.42 93.09 L785.06 95.20 L787.70 97.35 L790.34 99.53 L792.98 101.75 L795.62 104.01 L798.26 106.30 L800.90 108.62 L803.54 110.97 L806.18 113.36 L808.82 115.78 L811.45 118.22 L814.09 120.70 L816.73 123.20 L819.37 125.73 L822.01 128.28 L824.65 130.86 L827.29 133.46 L829.93 136.09 L832.57 138.73 L835.21 141.40 L837.85 144.08 L840.49 146.79 L843.13 149.51 L845.77 152.24 L848.41 154.99 L851.05 157.76 L853.69 160.53 L856.33 163.32 L858.97 166.12 L861.61 168.93 L864.24 171.75 L866.88 174.57 L869.52 177.40 L872.16 180.23 L874.80 183.07 L877.44 185.91 L880.08 188.75 L882.72 191.59 L885.36 194.43 L888.00 197.27" fill="none" stroke="#8ab4f8" stroke-linejoin="round" stroke-linecap="round" vector-effect="non-scaling-stroke" /></g><g class="plot-series series-1"><path class="plot-line series-1" d="M46.00 330.36 L48.64 330.50 L51.28 330.58 L53.92 330.60 L56.56 330.57 L59.20 330.48 L61.84 330.33 L64.48 330.12 L67.12 329.86 L69.76 329.54 L72.39 329.17 L75.03 328.74 L77.67 328.25 L80.31 327.71 L82.95 327.11 L85.59 326.46 L88.23 325.75 L90.87 324.98 L93.51 324.16 L96.15 323.29 L98.79 322.36 L101.43 321.38 L104.07 320.34 L106.71 319.25 L109.35 318.11 L111.99 316.92 L114.63 315.68 L117.27 314.38 L119.91 313.04 L122.55 311.64 L125.18 310.20 L127.82 308.70 L130.46 307.16 L133.10 305.57 L135.74 303.94 L138.38 302.26 L141.02 300.53 L143.66 298.76 L146.30 296.94 L148.94 295.08 L151.58 293.17 L154.22 291.23 L156.86 289.24 L159.50 287.22 L162.14 285.15 L164.78 283.05 L167.42 280.90 L170.06 278.72 L172.70 276.51 L175.34 274.26 L177.97 271.97 L180.61 269.65 L183.25 267.30 L185.89 264.92 L188.53 262.51 L191.17 260.06 L193.81 257.59 L196.45 255.09 L199.09 252.57 L201.73 250.02 L204.37 247.44 L207.01 244.84 L209.65 242.22 L212.29 239.58 L214.93 236.91 L217.57 234.23 L220.21 231.53 L222.85 228.81 L225.49 226.08 L228.13 223.33 L230.76 220.57 L233.40 217.79 L236.04 215.00 L238.68 212.21 L241.32 209.40 L243.96 206.58 L246.60 203.76 L249.24 200.93 L251.88 198.10 L254.52 195.26 L257.16 192.42 L259.80 189.58 L262.44 186.74 L265.08 183.90 L267.72 181.07 L270.36 178.23 L273.00 175.40 L275.64 172.58 L278.28 169.76 L280.92 166.95 L283.55 164.15 L286.19 161.35 L288.83 158.57 L291.47 155.81 L294.11 153.05 L296.75 150.31 L299.39 147.59 L302.03 144.88 L304.67 142.19 L307.31 139.52 L309.95 136.86 L312.59 134.23 L315.23 131.62 L317.87 129.04 L320.51 126.48 L323.15 123.94 L325.79 121.43 L328.43 118.95 L331.07 116.49 L333.71 114.07 L336.34 111.67 L338.98 109.31 L341.62 106.98 L344.26 104.68 L346.90 102.41 L349.54 100.18 L352.18 97.99 L354.82 95.83 L357.46 93.71 L360.10 91.63 L362.74 89.58 L365.38 87.58 L368.02 85.62 L370.66 83.70 L373.30 81.82 L375.94 79.99 L378.58 78.20 L381.22 76.45 L383.86 74.75 L386.50 73.09 L389.13 71.48 L391.77 69.92 L394.41 68.41 L397.05 66.95 L399.69 65.53 L402.33 64.16 L404.97 62.85 L407.61 61.58 L410.25 60.37 L412.89 59.21 L415.53 58.10 L418.17 57.04 L420.81 56.04 L423.45 55.09 L426.09 54.19 L428.73 53.35 L431.37 52.56 L434.01 51.83 L436.65 51.15 L439.29 50.53 L441.92 49.96 L444.56 49.45 L447.20 49.00 L449.84 48.60 L452.48 48.26 L455.12 47.98 L457.76 47.75 L460.40 47.58 L463.04 47.46 L465.68 47.41 L468.32 47.41 L470.96 47.46 L473.60 47.58 L476.24 47.75 L478.88 47.98 L481.52 48.26 L484.16 48.60 L486.80 49.00 L489.44 49.45 L492.08 49.96 L494.71 50.53 L497.35 51.15 L499.99 51.83 L502.63 52.56 L505.27 53.35 L507.91 54.19 L510.55 55.09 L513.19 56.04 L515.83 57.04 L518.47 58.10 L521.11 59.21 L523.75 60.37 L526.39 61.58 L529.03 62.85 L531.67 64.16 L534.31 65.53 L536.95 66.95 L539.59 68.41 L542.23 69.92 L544.87 71.48 L547.50 73.09 L550.14 74.75 L552.78 76.45 L555.42 78.20 L558.06 79.99 L560.70 81.82 L563.34 83.70 L565.98 85.62 L568.62 87.58 L571.26 89.58 L573.90 91.63 L576.54 93.71 L579.18 95.83 L581.82 97.99 L584.46 100.18 L587.10 102.41 L589.74 104.68 L592.38 106.98 L595.02 109.31 L597.66 111.67 L600.29 114.07 L602.93 116.49 L605.57 118.95 L608.21 121.43 L610.85 123.94 L613.49 126.48 L616.13 129.04 L618.77 131.62 L621.41 134.23 L624.05 136.86 L626.69 139.52 L629.33 142.19 L631.97 144.88 L634.61 147.59 L637.25 150.31 L639.89 153.05 L642.53 155.81 L645.17 158.57 L647.81 161.35 L650.45 164.15 L653.08 166.95 L655.72 169.76 L658.36 172.58 L661.00 175.40 L663.64 178.23 L666.28 181.07 L668.92 183.90 L671.56 186.74 L674.20 189.58 L676.84 192.42 L679.48 195.26 L682.12 198.10 L684.76 200.93 L687.40 203.76 L690.04 206.58 L692.68 209.40 L695.32 212.21 L697.96 215.00 L700.60 217.79 L703.24 220.57 L705.87 223.33 L708.51 226.08 L711.15 228.81 L713.79 231.53 L716.43 234.23 L719.07 236.91 L721.71 239.58 L724.35 242.22 L726.99 244.84 L729.63 247.44 L732.27 250.02 L734.91 252.57 L737.55 255.09 L740.19 257.59 L742.83 260.06 L745.47 262.51 L748.11 264.92 L750.75 267.30 L753.39 269.65 L756.03 271.97 L758.66 274.26 L761.30 276.51 L763.94 278.72 L766.58 280.90 L769.22 283.05 L771.86 285.15 L774.50 287.22 L777.14 289.24 L779.78 291.23 L782.42 293.17 L785.06 295.08 L787.70 296.94 L790.34 298.76 L792.98 300.53 L795.62 302.26 L798.26 303.94 L800.90 305.57 L803.54 307.16 L806.18 308.70 L808.82 310.20 L811.45 311.64 L814.09 313.04 L816.73 314.38 L819.37 315.68 L822.01 316.92 L824.65 318.11 L827.29 319.25 L829.93 320.34 L832.57 321.38 L835.21 322.36 L837.85 323.29 L840.49 324.16 L843.13 324.98 L845.77 325.75 L848.41 326.46 L851.05 327.11 L853.69 327.71 L856.33 328.25 L858.97 328.74 L861.61 329.17 L864.24 329.54 L866.88 329.86 L869.52 330.12 L872.16 330.33 L874.80 330.48 L877.44 330.57 L880.08 330.60 L882.72 330.58 L885.36 330.50 L888.00 330.36" fill="none" stroke="#2fbf71" stroke-dasharray="8,5" stroke-linejoin="round" stroke-linecap="round" vector-effect="non-scaling-stroke" /></g>

    
  </g>
</svg>